<svg xmlns="http://www.w3.org/2000/svg" xmlns:xlink="http://www.w3.org/1999/xlink" width="500" zoomAndPan="magnify" viewBox="0 0 375 31.5" height="42" preserveAspectRatio="xMidYMid meet" version="1.0"><defs><clipPath id="57ac366c1b"><path d="M 178 6.738281 L 197 6.738281 L 197 24.457031 L 178 24.457031 Z M 178 6.738281 " clip-rule="nonzero"/></clipPath></defs><path fill="#000000" d="M 160.496094 16.796875 L 8.589844 16.796875 L 8.589844 14.417969 L 160.496094 14.417969 Z M 160.496094 16.796875 " fill-opacity="1" fill-rule="nonzero"/><path fill="#000000" d="M 162.820312 15.605469 C 162.820312 15.964844 162.75 16.3125 162.613281 16.644531 C 162.480469 16.976562 162.285156 17.269531 162.035156 17.523438 C 161.78125 17.777344 161.492188 17.972656 161.164062 18.109375 C 160.835938 18.246094 160.492188 18.316406 160.136719 18.316406 C 159.78125 18.316406 159.441406 18.246094 159.113281 18.109375 C 158.785156 17.972656 158.492188 17.777344 158.242188 17.523438 C 157.992188 17.269531 157.796875 16.976562 157.660156 16.644531 C 157.523438 16.3125 157.457031 15.964844 157.457031 15.605469 C 157.457031 15.246094 157.523438 14.902344 157.660156 14.570312 C 157.796875 14.238281 157.992188 13.945312 158.242188 13.691406 C 158.492188 13.4375 158.785156 13.242188 159.113281 13.101562 C 159.441406 12.964844 159.78125 12.898438 160.136719 12.898438 C 160.492188 12.898438 160.835938 12.964844 161.164062 13.101562 C 161.492188 13.242188 161.78125 13.4375 162.035156 13.691406 C 162.285156 13.945312 162.480469 14.238281 162.613281 14.570312 C 162.75 14.902344 162.820312 15.246094 162.820312 15.605469 Z M 162.820312 15.605469 " fill-opacity="1" fill-rule="nonzero"/><path fill="#000000" d="M 162.628906 16.261719 C 163.9375 17.34375 164.226562 18.875 163.445312 20.890625 L 176.632812 15.613281 L 176.65625 15.609375 L 176.644531 15.605469 L 176.65625 15.601562 L 176.632812 15.601562 L 163.445312 10.324219 C 164.214844 12.320312 164.101562 13.929688 162.628906 14.953125 L 162.398438 14.941406 L 162.515625 15.605469 L 162.398438 16.269531 Z M 162.628906 16.261719 " fill-opacity="1" fill-rule="nonzero"/><path fill="#000000" d="M 6.753906 19.148438 C 4.738281 19.148438 3.101562 17.492188 3.101562 15.457031 C 3.101562 13.421875 4.738281 11.765625 6.753906 11.765625 C 8.769531 11.765625 10.410156 13.421875 10.410156 15.457031 C 10.410156 17.492188 8.769531 19.148438 6.753906 19.148438 Z M 6.753906 13.96875 C 5.941406 13.96875 5.28125 14.636719 5.28125 15.457031 C 5.28125 16.277344 5.941406 16.945312 6.753906 16.945312 C 7.566406 16.945312 8.226562 16.277344 8.226562 15.457031 C 8.226562 14.636719 7.566406 13.96875 6.753906 13.96875 Z M 6.753906 13.96875 " fill-opacity="1" fill-rule="nonzero"/><path fill="#000000" d="M 214.496094 14.417969 L 366.40625 14.417969 L 366.40625 16.796875 L 214.496094 16.796875 Z M 214.496094 14.417969 " fill-opacity="1" fill-rule="nonzero"/><path fill="#000000" d="M 217.539062 15.605469 C 217.539062 15.964844 217.46875 16.3125 217.332031 16.644531 C 217.199219 16.976562 217.003906 17.269531 216.753906 17.523438 C 216.5 17.777344 216.210938 17.972656 215.882812 18.109375 C 215.554688 18.246094 215.210938 18.316406 214.855469 18.316406 C 214.5 18.316406 214.160156 18.246094 213.832031 18.109375 C 213.503906 17.972656 213.210938 17.777344 212.960938 17.523438 C 212.710938 17.269531 212.515625 16.976562 212.378906 16.644531 C 212.242188 16.3125 212.175781 15.964844 212.175781 15.605469 C 212.175781 15.246094 212.242188 14.902344 212.378906 14.570312 C 212.515625 14.238281 212.710938 13.945312 212.960938 13.691406 C 213.210938 13.4375 213.503906 13.242188 213.832031 13.101562 C 214.160156 12.964844 214.5 12.898438 214.855469 12.898438 C 215.210938 12.898438 215.554688 12.964844 215.882812 13.101562 C 216.210938 13.242188 216.5 13.4375 216.753906 13.691406 C 217.003906 13.945312 217.199219 14.238281 217.332031 14.570312 C 217.46875 14.902344 217.539062 15.246094 217.539062 15.605469 Z M 217.539062 15.605469 " fill-opacity="1" fill-rule="nonzero"/><path fill="#000000" d="M 212.363281 16.261719 C 211.058594 17.34375 210.765625 18.875 211.550781 20.890625 L 198.363281 15.613281 L 198.339844 15.609375 L 198.351562 15.605469 L 198.339844 15.601562 L 198.363281 15.601562 L 211.550781 10.324219 C 210.78125 12.320312 210.894531 13.929688 212.363281 14.953125 L 212.597656 14.941406 L 212.480469 15.605469 L 212.597656 16.269531 Z M 212.363281 16.261719 " fill-opacity="1" fill-rule="nonzero"/><path fill="#000000" d="M 364.585938 15.457031 C 364.585938 13.421875 366.226562 11.765625 368.242188 11.765625 C 370.253906 11.765625 371.894531 13.421875 371.894531 15.457031 C 371.894531 17.492188 370.253906 19.148438 368.242188 19.148438 C 366.226562 19.148438 364.585938 17.492188 364.585938 15.457031 Z M 366.769531 15.457031 C 366.769531 16.277344 367.429688 16.945312 368.242188 16.945312 C 369.050781 16.945312 369.710938 16.277344 369.710938 15.457031 C 369.710938 14.636719 369.050781 13.96875 368.242188 13.96875 C 367.429688 13.96875 366.769531 14.636719 366.769531 15.457031 Z M 366.769531 15.457031 " fill-opacity="1" fill-rule="nonzero"/><g clip-path="url(#57ac366c1b)"><path fill="#000000" d="M 187.496094 24.476562 C 185.832031 19.992188 183.027344 16.890625 178.71875 15.605469 C 182.9375 13.824219 185.921875 10.921875 187.496094 6.738281 C 188.664062 10.90625 191.8125 13.707031 196.273438 15.605469 C 192.382812 16.613281 189.539062 19.738281 187.496094 24.476562 Z M 187.496094 24.476562 " fill-opacity="1" fill-rule="nonzero"/></g></svg>